ffmpeg version N-85750-ga75ef15 Copyright (c) 2000-2017 the FFmpeg developers
  built with gcc 6.3.0 (GCC)
  configuration: --enable-gpl --enable-version3 --enable-cuda --enable-cuvid --enable-d3d11va --enable-dxva2 --enable-libmfx --enable-nvenc --enable-avisynth --enable-bzlib --enable-fontconfig --enable-frei0r --enable-gnutls --enable-iconv --enable-libass --enable-libbluray --enable-libbs2b --enable-libcaca --enable-libfreetype --enable-libgme --enable-libgsm --enable-libilbc --enable-libmodplug --enable-libmp3lame --enable-libopencore-amrnb --enable-libopencore-amrwb --enable-libopenh264 --enable-libopenjpeg --enable-libopus --enable-librtmp --enable-libsnappy --enable-libsoxr --enable-libspeex --enable-libtheora --enable-libtwolame --enable-libvidstab --enable-libvo-amrwbenc --enable-libvorbis --enable-libvpx --enable-libwavpack --enable-libwebp --enable-libx264 --enable-libx265 --enable-libxavs --enable-libxvid --enable-libzimg --enable-lzma --enable-zlib
  libavutil      55. 61.100 / 55. 61.100
  libavcodec     57. 93.100 / 57. 93.100
  libavformat    57. 72.101 / 57. 72.101
  libavdevice    57.  7.100 / 57.  7.100
  libavfilter     6. 88.100 /  6. 88.100
  libswscale      4.  7.101 /  4.  7.101
  libswresample   2.  8.100 /  2.  8.100
  libpostproc    54.  6.100 / 54.  6.100
Input #0, image2pipe, from 'pipe:':
  Duration: N/A, bitrate: N/A
    Stream #0:0: Video: ppm, rgb24, 320x240, 20 fps, 20 tbr, 20 tbn, 20 tbc
Stream mapping:
  Stream #0:0 -> #0:0 (ppm (native) -> h264 (libx264))
[libx264 @ 0000000000ec9860] using cpu capabilities: MMX2 SSE2Fast SSSE3 SSE4.2 AVX FMA3 AVX2 LZCNT BMI2
[libx264 @ 0000000000ec9860] profile High, level 1.3
[libx264 @ 0000000000ec9860] 264 - core 148 r2762 90a61ec - H.264/MPEG-4 AVC codec - Copyleft 2003-2017 - http://www.videolan.org/x264.html - options: cabac=1 ref=3 deblock=1:0:0 analyse=0x3:0x113 me=hex subme=7 psy=1 psy_rd=1.00:0.00 mixed_ref=1 me_range=16 chroma_me=1 trellis=1 8x8dct=1 cqm=0 deadzone=21,11 fast_pskip=1 chroma_qp_offset=-2 threads=7 lookahead_threads=1 sliced_threads=0 nr=0 decimate=1 interlaced=0 bluray_compat=0 constrained_intra=0 bframes=3 b_pyramid=2 b_adapt=1 b_bias=0 direct=1 weightb=1 open_gop=0 weightp=2 keyint=250 keyint_min=20 scenecut=40 intra_refresh=0 rc_lookahead=40 rc=abr mbtree=1 bitrate=400 ratetol=1.0 qcomp=0.60 qpmin=0 qpmax=69 qpstep=4 ip_ratio=1.40 aq=1:1.00
Output #0, mp4, to '.\mission_records\1ead9118-abdb-407b-943c-4ec594184ed6\video.mp4':
  Metadata:
    encoder         : Lavf57.72.101
    Stream #0:0: Video: h264 (libx264) ([33][0][0][0] / 0x0021), yuv420p, 320x240, q=-1--1, 400 kb/s, 20 fps, 10240 tbn, 20 tbc
    Metadata:
      encoder         : Lavc57.93.100 libx264
    Side data:
      cpb: bitrate max/min/avg: 0/0/400000 buffer size: 0 vbv_delay: -1
frame=   30 fps=0.0 q=0.0 size=       0kB time=00:00:00.00 bitrate=N/A speed=   0x    frame=   37 fps= 33 q=0.0 size=       0kB time=00:00:00.00 bitrate=N/A speed=   0x    frame=   44 fps= 26 q=0.0 size=       0kB time=00:00:00.00 bitrate=N/A speed=   0x    frame=   51 fps= 22 q=0.0 size=       0kB time=00:00:00.00 bitrate=N/A speed=   0x    frame=   58 fps= 20 q=27.0 size=      18kB time=00:00:00.20 bitrate= 732.9kbits/s speed=0.0701x    frame=   64 fps= 17 q=28.0 size=      32kB time=00:00:00.50 bitrate= 519.2kbits/s speed=0.136x    frame=   71 fps= 17 q=28.0 size=      52kB time=00:00:00.85 bitrate= 501.5kbits/s speed= 0.2x    frame=   78 fps= 16 q=28.0 size=      72kB time=00:00:01.20 bitrate= 494.7kbits/s speed=0.25x    frame=   85 fps= 16 q=28.0 size=      86kB time=00:00:01.55 bitrate= 455.8kbits/s speed=0.288x    frame=   92 fps= 15 q=28.0 size=     105kB time=00:00:01.90 bitrate= 452.8kbits/s speed=0.319x    frame=   99 fps= 15 q=28.0 size=     121kB time=00:00:02.25 bitrate= 440.3kbits/s speed=0.344x    frame=  105 fps= 15 q=28.0 size=     139kB time=00:00:02.55 bitrate= 447.3kbits/s speed=0.362x    frame=  112 fps= 15 q=28.0 size=     155kB time=00:00:02.90 bitrate= 438.0kbits/s speed=0.382x    frame=  119 fps= 15 q=28.0 size=     173kB time=00:00:03.25 bitrate= 437.2kbits/s speed=0.398x    frame=  120 fps= 14 q=-1.0 Lsize=     304kB time=00:00:05.85 bitrate= 425.9kbits/s speed=0.683x    
video:302kB audio:0kB subtitle:0kB other streams:0kB global headers:0kB muxing overhead: 0.678139%
[libx264 @ 0000000000ec9860] frame I:9     Avg QP:21.00  size:  4505
[libx264 @ 0000000000ec9860] frame P:43    Avg QP:24.24  size:  2767
[libx264 @ 0000000000ec9860] frame B:68    Avg QP:24.44  size:  2193
[libx264 @ 0000000000ec9860] consecutive B-frames: 22.5%  1.7% 12.5% 63.3%
[libx264 @ 0000000000ec9860] mb I  I16..4: 29.4% 56.6% 14.0%
[libx264 @ 0000000000ec9860] mb P  I16..4: 16.8% 23.2%  5.6%  P16..4: 26.0%  8.4%  9.2%  0.0%  0.0%    skip:10.9%
[libx264 @ 0000000000ec9860] mb B  I16..4:  2.4%  2.9%  1.0%  B16..8: 31.3% 13.3%  6.8%  direct:10.3%  skip:32.1%  L0:49.2% L1:45.2% BI: 5.6%
[libx264 @ 0000000000ec9860] final ratefactor: 23.55
[libx264 @ 0000000000ec9860] 8x8 transform intra:51.9% inter:65.8%
[libx264 @ 0000000000ec9860] coded y,uvDC,uvAC intra: 51.1% 21.3% 2.6% inter: 27.2% 12.7% 0.1%
[libx264 @ 0000000000ec9860] i16 v,h,dc,p:  7% 51% 18% 24%
[libx264 @ 0000000000ec9860] i8 v,h,dc,ddl,ddr,vr,hd,vl,hu:  5% 22% 39%  5%  6%  3%  8%  3%  8%
[libx264 @ 0000000000ec9860] i4 v,h,dc,ddl,ddr,vr,hd,vl,hu: 17% 43% 33%  1%  1%  1%  2%  0%  2%
[libx264 @ 0000000000ec9860] i8c dc,h,v,p: 58% 37%  1%  4%
[libx264 @ 0000000000ec9860] Weighted P-Frames: Y:9.3% UV:9.3%
[libx264 @ 0000000000ec9860] ref P L0: 62.6%  3.6% 20.4% 12.8%  0.5%
[libx264 @ 0000000000ec9860] ref B L0: 77.4% 17.6%  5.1%
[libx264 @ 0000000000ec9860] ref B L1: 91.5%  8.5%
[libx264 @ 0000000000ec9860] kb/s:411.56
